<svg width="155" height="207" viewBox="0 0 155 207" fill="none" xmlns="http://www.w3.org/2000/svg">
<path fill-rule="evenodd" clip-rule="evenodd" d="M58.1248 97.2084C58.1248 97.2084 52.832 25.7102 96.8748 0.333588C96.8748 25.8622 110.218 42.1246 124.119 59.0657C139.23 77.4826 155 96.7017 155 129.5C155 172.302 120.302 207 77.5 207C34.6979 207 0 172.302 0 129.5C0 100.855 15.6344 75.0915 38.75 61.6878C38.75 90.75 58.1248 97.2084 58.1248 97.2084ZM49.0775 159.128C52.9611 174.702 68.7341 184.179 84.3075 180.296C131.306 168.577 112.557 93.3796 112.557 93.3796C112.557 93.3796 107.845 114.523 70.2459 123.897C54.6717 127.78 45.1947 143.554 49.0775 159.128Z" fill="url(#paint0_linear_3_7)"/>
<defs>
<linearGradient id="paint0_linear_3_7" x1="77.5" y1="0.333588" x2="77.5" y2="207" gradientUnits="userSpaceOnUse">
<stop stop-color="#FDA4AF"/>
<stop offset="1" stop-color="#F43F5E"/>
</linearGradient>
</defs>
</svg>
